<?xml version="1.0" standalone="no"?>
<!DOCTYPE svg PUBLIC "-//W3C//DTD SVG 20010904//EN"
 "http://www.w3.org/TR/2001/REC-SVG-20010904/DTD/svg10.dtd">
<svg version="1.0" xmlns="http://www.w3.org/2000/svg"
 width="513.000000pt" height="513.000000pt" viewBox="0 0 513.000000 513.000000"
 preserveAspectRatio="xMidYMid meet">
<metadata>
Created by potrace 1.11, written by Peter Selinger 2001-2013
</metadata>
<g transform="translate(0.000000,513.000000) scale(0.100000,-0.100000)"
fill="#000000" stroke="none">
<path d="M3583 4023 c-49 -43 -97 -87 -109 -98 -12 -11 -54 -49 -94 -85 -40
-36 -78 -69 -84 -75 -6 -5 -56 -50 -111 -100 -55 -49 -102 -92 -105 -95 -3 -3
-50 -45 -105 -94 -55 -50 -102 -92 -105 -95 -3 -3 -41 -37 -85 -76 -79 -69
-148 -131 -189 -170 -12 -11 -60 -54 -106 -95 -47 -41 -90 -79 -96 -85 -22
-20 -165 -150 -294 -265 -52 -47 -115 -104 -140 -127 -25 -23 -56 -51 -70 -63
-39 -33 -153 -135 -187 -167 -16 -15 -65 -59 -108 -98 -43 -38 -88 -79 -99
-90 -22 -20 -22 -23 -21 -542 0 -288 1 -523 3 -523 2 0 9 6 16 13 7 6 48 44
91 82 43 39 83 75 89 80 6 6 54 48 106 95 110 99 95 85 197 177 43 40 88 80
100 90 11 10 60 54 109 98 48 44 115 104 149 134 33 29 76 68 95 85 19 18 64
59 100 91 36 32 83 74 105 94 22 20 80 72 130 116 49 44 95 85 101 90 66 61
209 190 254 230 31 28 93 84 139 125 46 41 92 82 101 90 9 8 55 50 101 92 46
42 94 85 105 95 12 10 41 36 65 58 l44 39 0 523 c0 288 -1 523 -2 523 -2 0
-42 -35 -90 -77z"/>
<path d="M5089 4077 c-54 -46 -173 -153 -188 -168 -9 -9 -61 -56 -116 -105
-55 -49 -102 -91 -105 -94 -6 -7 -361 -326 -490 -441 -52 -46 -102 -91 -110
-99 -9 -8 -54 -49 -100 -90 -45 -41 -88 -80 -94 -85 -6 -6 -56 -50 -111 -99
-55 -49 -102 -92 -105 -96 -3 -3 -72 -66 -155 -139 -82 -74 -168 -150 -190
-170 -22 -20 -83 -74 -135 -121 -52 -47 -117 -106 -145 -131 -27 -25 -68 -62
-90 -81 l-40 -36 1 -516 c0 -284 3 -518 6 -521 2 -3 13 3 24 13 10 9 91 82
179 161 88 79 198 178 245 220 104 93 171 153 230 207 25 22 95 85 155 139 61
54 117 106 126 114 9 9 29 27 45 41 65 57 239 214 244 219 3 3 43 40 90 81 47
41 92 82 100 90 8 8 98 89 200 180 102 90 205 183 230 206 25 24 55 51 66 61
116 100 264 238 265 247 4 53 3 1020 -1 1027 -3 4 -17 -2 -31 -14z"/>
<path d="M2099 3967 c-107 -102 -310 -292 -336 -315 -13 -11 -67 -60 -120
-109 -54 -49 -127 -116 -163 -148 -36 -32 -72 -65 -81 -74 -9 -9 -31 -29 -50
-45 -30 -26 -140 -124 -384 -341 -38 -35 -153 -136 -255 -225 -102 -90 -216
-191 -255 -225 -38 -34 -113 -99 -165 -145 -52 -46 -131 -115 -174 -154 -43
-39 -87 -77 -97 -84 -18 -13 -19 -38 -19 -544 0 -427 2 -529 12 -517 7 9 58
56 113 104 55 49 102 91 105 95 3 3 46 41 95 85 50 43 97 86 106 95 8 8 46 42
84 75 37 33 73 65 79 70 6 6 103 94 216 195 113 101 210 189 216 195 25 23
182 164 224 201 25 21 67 60 95 85 27 26 65 59 83 75 19 15 51 43 72 63 21 20
73 68 116 106 43 39 88 79 100 90 12 11 35 32 52 46 100 89 321 289 370 334
l42 40 -2 522 -3 522 -76 -72z"/>
</g>
</svg>
